<?xml version="1.0" encoding="UTF-8" standalone="no"?>
<svg
   xmlns:dc="http://purl.org/dc/elements/1.1/"
   xmlns:cc="http://creativecommons.org/ns#"
   xmlns:rdf="http://www.w3.org/1999/02/22-rdf-syntax-ns#"
   xmlns:svg="http://www.w3.org/2000/svg"
   xmlns="http://www.w3.org/2000/svg"
   viewBox="0 0 214.46013 214.94656"
   height="214.94655"
   width="214.46013"
   version="1.1"
   id="svg3390">
  <metadata
     id="metadata3396">
    <rdf:RDF>
      <cc:Work
         rdf:about="">
        <dc:format>image/svg+xml</dc:format>
        <dc:type
           rdf:resource="http://purl.org/dc/dcmitype/StillImage" />
        <dc:title></dc:title>
      </cc:Work>
    </rdf:RDF>
  </metadata>
  <defs
     id="defs3394" />
  <path
     id="path3472"
     d="m 99.00705,198.72001 0,-16.22654 -16.72792,0 -16.72792,0 8.45584,-8.5 8.45584,-8.5 8.27208,0 8.27208,0 0,-8.5 0,-8.5 -33.22654,0 -33.22654,0 7.95308,-7.99999 7.95308,-8 25.27346,0 25.27346,0 0,-8.49066 0,-8.49067 L 49.50352,115.25282 0,114.99348 57.50352,57.496739 115.00705,0 l 0,49.746739 0,49.746739 49.72654,0 49.72654,0 -7.95308,8.000002 -7.95308,8 -41.77346,0 -41.77346,0 0,8.5 0,8.5 33.22654,0 33.22654,0 -7.95308,8 -7.95308,7.99999 -25.27346,0 -25.27346,0 0,8.5 0,8.5 16.72792,0 16.72792,0 -8.45584,8.5 -8.45584,8.5 -8.27208,0 -8.27208,0 0,8.27346 0,8.27346 -8,7.95308 -8,7.95308 0,-16.22654 z m 0,-129.226532 c 0,-16.5 -0.11531,-30 -0.25625,-30 -0.14094,0 -13.75063,13.5 -30.24375,30 l -29.9875,30 30.24375,0 30.24375,0 0,-30 z"
     style="fill:#1b7eb5;fill-opacity:1" />
</svg>
